# xmcd
#
# Track frame offsets: 
#        150
#        1522
#        20875
#        42889
#        103766
#        138093
#        165686
#        230333
#
# Disc length: 4169 seconds
#
# Revision: 1
# Processed by: cddbd v1.5.2PL0 Copyright (c) Steve Scherf et al.
# Submitted via: ExactAudioCopy v0.99pb5
#
DISCID=57104708
DTITLE=The Doors - Isle Of Wight Festival 8-30-70
DYEAR=1970
DGENRE=Rock
TTITLE0=Introduction
TTITLE1=Back Door Man
TTITLE2=Break On Through
TTITLE3=When The Music's Over
TTITLE4=Ship Of Fools
TTITLE5=Roadhouse Blues
TTITLE6=Light My Fire
TTITLE7=The End
EXTD=
EXTT0=
EXTT1=
EXTT2=
EXTT3=
EXTT4=
EXTT5=
EXTT6=
EXTT7=
PLAYORDER=
